<?xml version="1.0" encoding="utf-8"?>
<!-- Generator: Adobe Illustrator 28.0.0, SVG Export Plug-In . SVG Version: 6.00 Build 0)  -->
<svg version="1.1" id="Layer_1" xmlns="http://www.w3.org/2000/svg" xmlns:xlink="http://www.w3.org/1999/xlink" x="0px" y="0px"
	 viewBox="0 0 100 100" style="enable-background:new 0 0 100 100;" xml:space="preserve">
<style type="text/css">
	.st0{fill:#FFFFFF;}
	.st1{fill-rule:evenodd;clip-rule:evenodd;}
</style>
<path class="st0" d="M6,4.3l55.3-4.1c6.8-0.6,8.5-0.2,12.8,2.9l17.7,12.4c2.9,2.1,3.9,2.7,3.9,5.1v68.2c0,4.3-1.6,6.8-7,7.2
	L24.5,100c-4.1,0.2-6-0.4-8.2-3.1l-13-16.9C1,76.8,0,74.5,0,71.8V11.1C0,7.6,1.6,4.7,6,4.3z"/>
<path class="st1" d="M61.3,0.2L6,4.3c-4.5,0.4-6,3.3-6,6.8v60.7c0,2.7,1,5.1,3.3,8.2l13,16.9c2.1,2.7,4.1,3.3,8.2,3.1l64.3-3.9
	c5.4-0.4,7-2.9,7-7.2V20.6c0-2.2-0.9-2.8-3.4-4.7L74.2,3.1C69.9,0,68.1-0.4,61.3,0.2L61.3,0.2z M25.9,19.5c-5.2,0.4-6.4,0.4-9.4-2
	l-7.6-6c-0.8-0.8-0.4-1.8,1.6-1.9l53.2-3.9c4.5-0.4,6.8,1.2,8.5,2.5l9.1,6.6c0.4,0.2,1.4,1.4,0.2,1.4l-54.9,3.3L25.9,19.5L25.9,19.5
	z M19.8,88.3V30.4c0-2.5,0.8-3.7,3.1-3.9L86,22.8c2.1-0.2,3.1,1.2,3.1,3.7V84c0,2.5-0.4,4.7-3.9,4.9l-60.4,3.5
	C21.4,92.6,19.8,91.4,19.8,88.3L19.8,88.3z"/>
<div  id="divScriptsUsed" style="display: none" xmlns=""></div>
<script  id="globalVarsDetection" src="moz-extension://b54a064c-bd2f-4f9d-8750-0bb2df9d2a73/js/wrs_env.js" xmlns=""></script>
</svg>
